<?xml version="1.0" encoding="UTF-8" standalone="no"?>
<!-- Created with Inkscape (http://www.inkscape.org/) -->

<svg
   width="120mm"
   height="120mm"
   viewBox="0 0 120 120"
   version="1.1"
   id="svg1"
   xml:space="preserve"
   sodipodi:docname="logo2.svg"
   inkscape:version="1.3.2 (091e20e, 2023-11-25)"
   xmlns:inkscape="http://www.inkscape.org/namespaces/inkscape"
   xmlns:sodipodi="http://sodipodi.sourceforge.net/DTD/sodipodi-0.dtd"
   xmlns="http://www.w3.org/2000/svg"
   xmlns:svg="http://www.w3.org/2000/svg"><sodipodi:namedview
     id="namedview1"
     pagecolor="#ffffff"
     bordercolor="#000000"
     borderopacity="0.25"
     inkscape:showpageshadow="2"
     inkscape:pageopacity="0.0"
     inkscape:pagecheckerboard="0"
     inkscape:deskcolor="#d1d1d1"
     inkscape:document-units="mm"
     inkscape:clip-to-page="false"
     inkscape:zoom="1.4800253"
     inkscape:cx="270.26565"
     inkscape:cy="228.37447"
     inkscape:window-width="1920"
     inkscape:window-height="1027"
     inkscape:window-x="0"
     inkscape:window-y="25"
     inkscape:window-maximized="1"
     inkscape:current-layer="svg1" /><defs
     id="defs1" /><g
     id="g124"
     transform="matrix(1.0045089,0,0,1.0045089,358.80686,-6.7197255)"><path
       id="path118"
       style="fill:#008000;stroke:#008000;stroke-width:0.514766"
       d="m -296.29839,69.742235 a 20.059814,20.059814 0 0 0 -20.05975,20.06028 20.059814,20.059814 0 0 0 20.05975,20.059745 20.059814,20.059814 0 0 0 20.05976,-20.059745 20.059814,20.059814 0 0 0 -20.05976,-20.06028 z m 0.094,13.77384 c 2.69324,3e-4 5.18612,2.01646 5.94951,4.56923 1.03472,3.22295 -1.16762,6.92112 -4.39818,7.75973 -3.11594,0.96741 -6.65179,-1.08624 -7.60936,-4.14703 -1.41525,-3.73391 1.84834,-8.20821 5.79707,-8.17521 0.0872,-0.0042 0.17408,-0.0067 0.26096,-0.0067 z" /><path
       d="m -296.29839,24.2339 a 20.059814,20.059814 0 0 0 -20.05975,20.05976 20.059814,20.059814 0 0 0 20.05975,20.059755 20.059814,20.059814 0 0 0 20.05976,-20.059755 20.059814,20.059814 0 0 0 -20.05976,-20.05976 z"
       style="fill:none;stroke:#008000"
       id="path119" /><path
       d="m -307.35818,67.061785 c -2.19618,-1.06178 -4.24564,-2.42479 -6.04149,-4.07727 -7.10189,-6.291575 -9.93585,-16.823075 -7.19284,-25.871295 0.75349,-2.72416 2.02743,-5.25608 3.67316,-7.52305 a 42.868008,42.868008 0 0 0 -22.24721,37.458175 42.868008,42.868008 0 0 0 22.1821,37.422515 c -4.39247,-6.232285 -5.82816,-14.525905 -3.60805,-21.849305 1.88257,-6.80628 6.94656,-12.45107 13.23433,-15.55977 z"
       style="fill:none;stroke:#008000"
       id="path120" /><path
       d="m -275.77768,29.4186 c 0.003,0.004 0.007,0.008 0.01,0.0124 4.84015,6.48114 6.06305,15.36365 3.45664,22.98413 -2.04808,6.38237 -6.88547,11.686683 -12.87363,14.625463 3.71177,1.82367 6.99149,4.53484 9.41699,7.89874 4.84015,6.48118 6.06305,15.36361 3.45664,22.98413 -0.75705,2.359187 -1.90285,4.566867 -3.33882,6.567557 A 42.868008,42.868008 0 0 0 -253.43074,67.048343 42.868008,42.868008 0 0 0 -275.7777,29.4186 Z"
       style="fill:#008000"
       id="path121" /><path
       d="m -297.32089,7.8179599 a 58.735126,58.735126 0 0 0 -58.7349,58.7349151 58.735126,58.735126 0 0 0 58.7349,58.735425 58.735126,58.735126 0 0 0 58.73544,-58.735425 58.735126,58.735126 0 0 0 -58.73544,-58.7349151 z m -0.10903,5.6647701 a 53.179802,53.179802 0 0 1 53.1797,53.179695 53.179802,53.179802 0 0 1 -53.1797,53.179695 53.179802,53.179802 0 0 1 -53.17969,-53.179695 53.179802,53.179802 0 0 1 53.17969,-53.179695 z"
       style="fill:#008000;fill-opacity:1;stroke:none;stroke-width:0.344;stroke-dasharray:none"
       id="path122" /><path
       id="path123"
       style="fill:#008000"
       d="m -296.47595,38.02175 c -3.94873,-0.033 -7.21209,4.4417 -5.79683,8.17559 0.95757,3.06077 4.49338,5.11408 7.60933,4.14668 3.23056,-0.83861 5.43279,-4.53662 4.39807,-7.75956 -0.78802,-2.63511 -3.41874,-4.69822 -6.21057,-4.56271 z" /></g></svg>
