<?xml version="1.0" encoding="UTF-8" standalone="no"?>
<!-- Created with Inkscape (http://www.inkscape.org/) -->

<svg
   width="120mm"
   height="120mm"
   viewBox="0 0 120 120"
   version="1.1"
   id="svg1"
   xml:space="preserve"
   sodipodi:docname="logo3.svg"
   inkscape:version="1.3.2 (091e20e, 2023-11-25)"
   inkscape:export-filename="favicon3.png"
   inkscape:export-xdpi="109.38"
   inkscape:export-ydpi="109.38"
   xmlns:inkscape="http://www.inkscape.org/namespaces/inkscape"
   xmlns:sodipodi="http://sodipodi.sourceforge.net/DTD/sodipodi-0.dtd"
   xmlns="http://www.w3.org/2000/svg"
   xmlns:svg="http://www.w3.org/2000/svg"><sodipodi:namedview
     id="namedview1"
     pagecolor="#ffffff"
     bordercolor="#000000"
     borderopacity="0.25"
     inkscape:showpageshadow="2"
     inkscape:pageopacity="0.0"
     inkscape:pagecheckerboard="0"
     inkscape:deskcolor="#d1d1d1"
     inkscape:document-units="mm"
     inkscape:clip-to-page="false"
     inkscape:zoom="1.4800253"
     inkscape:cx="270.26565"
     inkscape:cy="228.37447"
     inkscape:window-width="1920"
     inkscape:window-height="1027"
     inkscape:window-x="0"
     inkscape:window-y="25"
     inkscape:window-maximized="1"
     inkscape:current-layer="svg1" /><defs
     id="defs1" /><path
     id="path118"
     style="fill:#aa8800;stroke:#aa8800;stroke-width:3;stroke-dasharray:none"
     d="M 60.57232,63.517016 A 25.463465,25.463465 0 0 0 35.108937,88.981073 25.463465,25.463465 0 0 0 60.57232,114.44445 25.463465,25.463465 0 0 0 86.035717,88.981073 25.463465,25.463465 0 0 0 60.57232,63.517016 Z m 0.119317,17.484195 c 3.418737,3.8e-4 6.583141,2.559647 7.552171,5.800075 1.313449,4.091138 -1.482151,8.78551 -5.582949,9.850022 -3.955303,1.228008 -8.443628,-1.378849 -9.659146,-5.264144 -1.796485,-4.739739 2.346241,-10.419312 7.358667,-10.377423 0.110685,-0.0053 0.220973,-0.0085 0.331257,-0.0085 z" /><path
     d="M 60.57232,5.7497876 A 25.463465,25.463465 0 0 0 35.108937,31.213183 25.463465,25.463465 0 0 0 60.57232,56.676573 25.463465,25.463465 0 0 0 86.035717,31.213183 25.463465,25.463465 0 0 0 60.57232,5.7497876 Z"
     style="fill:none;stroke:#2a7fff;stroke-width:4;stroke-dasharray:none"
     id="path119" /><path
     d="M 46.533279,60.114515 C 43.745498,58.766716 41.143962,57.036543 38.86435,54.938922 29.849376,46.952543 26.252011,33.5841 29.733925,22.098498 30.690389,18.640512 32.307498,15.426552 34.39655,12.548913 A 54.41566,54.41566 0 0 0 6.1564556,60.097455 54.41566,54.41566 0 0 0 34.313901,107.60073 c -5.5757,-7.911118 -7.398132,-18.438848 -4.579976,-27.735002 2.389692,-8.639735 8.817804,-15.805101 16.799354,-19.751213 z"
     style="fill:none;stroke:#2a7fff;stroke-width:3;stroke-dasharray:none"
     id="path120" /><path
     d="m 86.620836,12.331126 c 0.0038,0.0051 0.0088,0.01011 0.0127,0.01575 6.143975,8.22701 7.696296,19.502262 4.387779,29.175524 -2.599786,8.101633 -8.740257,14.834805 -16.341489,18.565225 4.711635,2.314925 8.874836,5.756421 11.95371,10.026477 6.143975,8.22706 7.696296,19.502212 4.387779,29.175525 -0.960982,2.994693 -2.415434,5.797073 -4.238222,8.336703 A 54.41566,54.41566 0 0 0 114.98753,60.097453 54.41566,54.41566 0 0 0 86.62081,12.331126 Z"
     style="fill:#aa8800;stroke:#aa8800;stroke-width:3;stroke-dasharray:none"
     id="path121" /><path
     id="path123"
     style="fill:#aa8800;stroke-width:1.26938"
     d="m 60.34693,23.251766 c -5.012427,-0.04189 -9.154861,5.638191 -7.358363,10.377905 1.215518,3.88527 5.703793,6.491695 9.659108,5.2637 4.100798,-1.064513 6.896259,-5.758682 5.582808,-9.849806 -1.000294,-3.344949 -4.339668,-5.963812 -7.883553,-5.791799 z" /></svg>
