<?xml version="1.0" encoding="UTF-8" standalone="no"?>
<!-- Created with Inkscape (http://www.inkscape.org/) -->

<svg
   width="120mm"
   height="120mm"
   viewBox="0 0 120 120"
   version="1.1"
   id="svg1"
   xml:space="preserve"
   sodipodi:docname="logo3.svg"
   inkscape:version="1.3.2 (091e20e, 2023-11-25)"
   inkscape:export-filename="logo3.png"
   inkscape:export-xdpi="109.38"
   inkscape:export-ydpi="109.38"
   xmlns:inkscape="http://www.inkscape.org/namespaces/inkscape"
   xmlns:sodipodi="http://sodipodi.sourceforge.net/DTD/sodipodi-0.dtd"
   xmlns="http://www.w3.org/2000/svg"
   xmlns:svg="http://www.w3.org/2000/svg"><sodipodi:namedview
     id="namedview1"
     pagecolor="#ffffff"
     bordercolor="#000000"
     borderopacity="0.25"
     inkscape:showpageshadow="2"
     inkscape:pageopacity="0.0"
     inkscape:pagecheckerboard="0"
     inkscape:deskcolor="#d1d1d1"
     inkscape:document-units="mm"
     inkscape:clip-to-page="false"
     inkscape:zoom="1.4142136"
     inkscape:cx="312.18764"
     inkscape:cy="219.2031"
     inkscape:window-width="1920"
     inkscape:window-height="1027"
     inkscape:window-x="0"
     inkscape:window-y="25"
     inkscape:window-maximized="1"
     inkscape:current-layer="svg1" /><defs
     id="defs1" /><path
     id="path118"
     style="fill:#aa8800;stroke:#aa8800;stroke-width:3;stroke-dasharray:none"
     d="M 60.57253 63.517053 A 25.463465 25.463465 0 0 0 35.108968 88.981132 A 25.463465 25.463465 0 0 0 60.57253 114.44469 A 25.463465 25.463465 0 0 0 86.035575 88.981132 A 25.463465 25.463465 0 0 0 60.57253 63.517053 z M 60.734277 78.059835 C 65.413916 78.060357 69.74572 81.563316 71.072148 85.998885 C 72.870034 91.598926 69.042975 98.025688 63.42972 99.482817 C 58.015602 101.16375 51.87316 97.594816 50.209338 92.276538 C 47.750258 85.788674 53.41944 78.013865 60.280558 78.071204 C 60.432069 78.063804 60.58332 78.059835 60.734277 78.059835 z " /><path
     d="M 60.57232,5.7497876 A 25.463465,25.463465 0 0 0 35.108937,31.213183 25.463465,25.463465 0 0 0 60.57232,56.676573 25.463465,25.463465 0 0 0 86.035717,31.213183 25.463465,25.463465 0 0 0 60.57232,5.7497876 Z"
     style="fill:none;stroke:#2a7fff;stroke-width:4;stroke-dasharray:none"
     id="path119" /><path
     d="M 46.533279,60.114515 C 43.745498,58.766716 41.143962,57.036543 38.86435,54.938922 29.849376,46.952543 26.252011,33.5841 29.733925,22.098498 30.690389,18.640512 32.307498,15.426552 34.39655,12.548913 A 54.41566,54.41566 0 0 0 6.1564556,60.097455 54.41566,54.41566 0 0 0 34.313901,107.60073 c -5.5757,-7.911118 -7.398132,-18.438848 -4.579976,-27.735002 2.389692,-8.639735 8.817804,-15.805101 16.799354,-19.751213 z"
     style="fill:none;stroke:#2a7fff;stroke-width:3;stroke-dasharray:none"
     id="path120" /><path
     d="m 86.620836,12.331126 c 0.0038,0.0051 0.0088,0.01011 0.0127,0.01575 6.143975,8.22701 7.696296,19.502262 4.387779,29.175524 -2.599786,8.101633 -8.740257,14.834805 -16.341489,18.565225 4.711635,2.314925 8.874836,5.756421 11.95371,10.026477 6.143975,8.22706 7.696296,19.502212 4.387779,29.175525 -0.960982,2.994693 -2.415434,5.797073 -4.238222,8.336703 A 54.41566,54.41566 0 0 0 114.98753,60.097453 54.41566,54.41566 0 0 0 86.62081,12.331126 Z"
     style="fill:#aa8800;stroke:#aa8800;stroke-width:3;stroke-dasharray:none"
     id="path121" /><path
     style="fill:#aa8800;stroke:#aa8800;stroke-width:3;stroke-dasharray:none"
     d="m 60.69387,23.228734 c 3.418733,3.8e-4 6.583481,2.559738 7.55251,5.800163 1.313448,4.091134 -1.482327,8.785534 -5.583121,9.850045 -3.955299,1.228007 -8.443325,-1.378987 -9.658842,-5.264278 -1.796483,-4.739735 2.345786,-10.41955 7.358207,-10.377661 0.110685,-0.0053 0.220962,-0.0083 0.331246,-0.0083 z"
     id="path8" /></svg>
