<?xml version="1.0" encoding="UTF-8" standalone="no"?>
<!-- Created with Inkscape (http://www.inkscape.org/) -->

<svg
   width="120mm"
   height="120mm"
   viewBox="0 0 120 120"
   version="1.1"
   id="svg1"
   xml:space="preserve"
   sodipodi:docname="logo2.svg"
   inkscape:version="1.3.2 (091e20e, 2023-11-25)"
   xmlns:inkscape="http://www.inkscape.org/namespaces/inkscape"
   xmlns:sodipodi="http://sodipodi.sourceforge.net/DTD/sodipodi-0.dtd"
   xmlns="http://www.w3.org/2000/svg"
   xmlns:svg="http://www.w3.org/2000/svg"><sodipodi:namedview
     id="namedview1"
     pagecolor="#ffffff"
     bordercolor="#000000"
     borderopacity="0.25"
     inkscape:showpageshadow="2"
     inkscape:pageopacity="0.0"
     inkscape:pagecheckerboard="0"
     inkscape:deskcolor="#d1d1d1"
     inkscape:document-units="mm"
     inkscape:clip-to-page="false"
     inkscape:zoom="1.4800253"
     inkscape:cx="270.26565"
     inkscape:cy="228.37447"
     inkscape:window-width="1920"
     inkscape:window-height="1027"
     inkscape:window-x="0"
     inkscape:window-y="25"
     inkscape:window-maximized="1"
     inkscape:current-layer="svg1" /><defs
     id="defs1" /><path
     id="path118"
     style="fill:#008000;stroke:#008000;stroke-width:0.517087"
     d="M 61.17249,63.33697 A 20.150262,20.150262 0 0 0 41.022293,83.4877 20.150262,20.150262 0 0 0 61.17249,103.63789 20.150262,20.150262 0 0 0 81.322698,83.4877 20.150262,20.150262 0 0 0 61.17249,63.33697 Z m 0.09442,13.835945 c 2.705384,3.01e-4 5.209504,2.025552 5.976336,4.589832 1.039385,3.237482 -1.172885,6.952327 -4.418011,7.794718 -3.12999,0.971772 -6.681782,-1.091138 -7.64367,-4.165728 -1.421631,-3.750746 1.856674,-8.24522 5.823208,-8.212072 0.08759,-0.0042 0.174865,-0.0067 0.262137,-0.0067 z" /><path
     d="M 61.17249,17.623443 A 20.150262,20.150262 0 0 0 41.022293,37.77365 20.150262,20.150262 0 0 0 61.17249,57.923853 20.150262,20.150262 0 0 0 81.322698,37.77365 20.150262,20.150262 0 0 0 61.17249,17.623443 Z"
     style="fill:none;stroke:#008000;stroke-width:2;stroke-dasharray:none"
     id="path119" /><path
     d="M 50.062833,60.644434 C 47.85675,59.577867 45.79805,58.208711 43.994102,56.54878 36.860191,50.228837 34.013452,39.649852 36.76883,30.560834 c 0.756888,-2.736443 2.036572,-5.279779 3.689722,-7.55697 a 43.061296,43.061296 0 0 0 -22.34752,37.62707 43.061296,43.061296 0 0 0 22.282117,37.591249 C 35.980874,91.961797 34.53871,83.630782 36.76883,76.274362 38.659889,69.437393 43.746712,63.767151 50.062833,60.644434 Z"
     style="fill:none;stroke:#008000;stroke-width:2;stroke-dasharray:none"
     id="path120" /><path
     d="m 81.785726,22.83152 c 0.003,0.004 0.007,0.008 0.01005,0.01246 4.861974,6.510363 6.090388,15.432923 3.472226,23.087763 -2.057315,6.411148 -6.916516,11.739377 -12.931676,14.691408 3.728506,1.831893 7.023014,4.555287 9.45945,7.934354 4.861974,6.510403 6.090388,15.432883 3.472226,23.087764 -0.760464,2.369824 -1.91143,4.587458 -3.353875,6.597169 A 43.061296,43.061296 0 0 0 104.23343,60.630932 43.061296,43.061296 0 0 0 81.785706,22.83152 Z"
     style="fill:#008000;stroke-width:1.00451"
     id="path121" /><path
     d="M 60.14538,1.1334848 A 58.999957,58.999957 0 0 0 1.14565,60.13323 58.999957,58.999957 0 0 0 60.14538,119.13349 58.999957,58.999957 0 0 0 119.14565,60.13323 58.999957,58.999957 0 0 0 60.14538,1.1334848 Z m -0.109522,5.690312 A 53.419584,53.419584 0 0 1 113.45534,60.243274 53.419584,53.419584 0 0 1 60.035858,113.66275 53.419584,53.419584 0 0 1 6.6163863,60.243274 53.419584,53.419584 0 0 1 60.035858,6.8237968 Z"
     style="fill:#008000;fill-opacity:1;stroke:none;stroke-width:0.345551;stroke-dasharray:none"
     id="path122" /><path
     id="path123"
     style="fill:#008000;stroke-width:1.00451"
     d="m 60.99413,31.473461 c -3.966535,-0.03315 -7.244609,4.461727 -5.822968,8.212453 0.961888,3.07457 4.51364,5.137139 7.64364,4.165377 3.245126,-0.842392 5.457286,-4.557076 4.4179,-7.794547 -0.791573,-2.646992 -3.434154,-4.719404 -6.238572,-4.583283 z" /></svg>
